<svg xmlns="http://www.w3.org/2000/svg" xmlns:xlink="http://www.w3.org/1999/xlink" width="600" height="400" viewBox="0 0 2400 1600">
<defs>
  <clipPath id="clip370">
    <rect x="0" y="0" width="2400" height="1600"></rect>
  </clipPath>
</defs>
<path clip-path="url(#clip370)" d="M0 1600 L2400 1600 L2400 0 L0 0  Z" fill="#ffffff" fill-rule="evenodd" fill-opacity="1"></path>
<defs>
  <clipPath id="clip371">
    <rect x="480" y="0" width="1681" height="1600"></rect>
  </clipPath>
</defs>
<path clip-path="url(#clip370)" d="M112.177 1486.45 L2352.76 1486.45 L2352.76 123.472 L112.177 123.472  Z" fill="#ffffff" fill-rule="evenodd" fill-opacity="1"></path>
<defs>
  <clipPath id="clip372">
    <rect x="112" y="123" width="2242" height="1364"></rect>
  </clipPath>
</defs>
<polyline clip-path="url(#clip372)" style="stroke:#000000; stroke-linecap:round; stroke-linejoin:round; stroke-width:2; stroke-opacity:0.1; fill:none" points="175.59,1486.45 175.59,123.472 "></polyline>
<polyline clip-path="url(#clip372)" style="stroke:#000000; stroke-linecap:round; stroke-linejoin:round; stroke-width:2; stroke-opacity:0.1; fill:none" points="704.028,1486.45 704.028,123.472 "></polyline>
<polyline clip-path="url(#clip372)" style="stroke:#000000; stroke-linecap:round; stroke-linejoin:round; stroke-width:2; stroke-opacity:0.1; fill:none" points="1232.47,1486.45 1232.47,123.472 "></polyline>
<polyline clip-path="url(#clip372)" style="stroke:#000000; stroke-linecap:round; stroke-linejoin:round; stroke-width:2; stroke-opacity:0.1; fill:none" points="1760.9,1486.45 1760.9,123.472 "></polyline>
<polyline clip-path="url(#clip372)" style="stroke:#000000; stroke-linecap:round; stroke-linejoin:round; stroke-width:2; stroke-opacity:0.1; fill:none" points="2289.34,1486.45 2289.34,123.472 "></polyline>
<polyline clip-path="url(#clip372)" style="stroke:#000000; stroke-linecap:round; stroke-linejoin:round; stroke-width:2; stroke-opacity:0.1; fill:none" points="112.177,1448 2352.76,1448 "></polyline>
<polyline clip-path="url(#clip372)" style="stroke:#000000; stroke-linecap:round; stroke-linejoin:round; stroke-width:2; stroke-opacity:0.1; fill:none" points="112.177,1126.51 2352.76,1126.51 "></polyline>
<polyline clip-path="url(#clip372)" style="stroke:#000000; stroke-linecap:round; stroke-linejoin:round; stroke-width:2; stroke-opacity:0.1; fill:none" points="112.177,805.026 2352.76,805.026 "></polyline>
<polyline clip-path="url(#clip372)" style="stroke:#000000; stroke-linecap:round; stroke-linejoin:round; stroke-width:2; stroke-opacity:0.1; fill:none" points="112.177,483.536 2352.76,483.536 "></polyline>
<polyline clip-path="url(#clip372)" style="stroke:#000000; stroke-linecap:round; stroke-linejoin:round; stroke-width:2; stroke-opacity:0.1; fill:none" points="112.177,162.047 2352.76,162.047 "></polyline>
<polyline clip-path="url(#clip370)" style="stroke:#000000; stroke-linecap:round; stroke-linejoin:round; stroke-width:4; stroke-opacity:1; fill:none" points="112.177,1486.45 2352.76,1486.45 "></polyline>
<polyline clip-path="url(#clip370)" style="stroke:#000000; stroke-linecap:round; stroke-linejoin:round; stroke-width:4; stroke-opacity:1; fill:none" points="175.59,1486.45 175.59,1467.55 "></polyline>
<polyline clip-path="url(#clip370)" style="stroke:#000000; stroke-linecap:round; stroke-linejoin:round; stroke-width:4; stroke-opacity:1; fill:none" points="704.028,1486.45 704.028,1467.55 "></polyline>
<polyline clip-path="url(#clip370)" style="stroke:#000000; stroke-linecap:round; stroke-linejoin:round; stroke-width:4; stroke-opacity:1; fill:none" points="1232.47,1486.45 1232.47,1467.55 "></polyline>
<polyline clip-path="url(#clip370)" style="stroke:#000000; stroke-linecap:round; stroke-linejoin:round; stroke-width:4; stroke-opacity:1; fill:none" points="1760.9,1486.45 1760.9,1467.55 "></polyline>
<polyline clip-path="url(#clip370)" style="stroke:#000000; stroke-linecap:round; stroke-linejoin:round; stroke-width:4; stroke-opacity:1; fill:none" points="2289.34,1486.45 2289.34,1467.55 "></polyline>
<path clip-path="url(#clip370)" d="M145.532 1532.02 L175.208 1532.02 L175.208 1535.95 L145.532 1535.95 L145.532 1532.02 Z" fill="#000000" fill-rule="nonzero" fill-opacity="1"></path><path clip-path="url(#clip370)" d="M189.328 1544.91 L205.647 1544.91 L205.647 1548.85 L183.703 1548.85 L183.703 1544.91 Q186.365 1542.16 190.948 1537.53 Q195.555 1532.88 196.736 1531.53 Q198.981 1529.01 199.86 1527.27 Q200.763 1525.51 200.763 1523.82 Q200.763 1521.07 198.819 1519.33 Q196.898 1517.6 193.796 1517.6 Q191.597 1517.6 189.143 1518.36 Q186.712 1519.13 183.935 1520.68 L183.935 1515.95 Q186.759 1514.82 189.212 1514.24 Q191.666 1513.66 193.703 1513.66 Q199.073 1513.66 202.268 1516.35 Q205.462 1519.03 205.462 1523.52 Q205.462 1525.65 204.652 1527.57 Q203.865 1529.47 201.759 1532.07 Q201.18 1532.74 198.078 1535.95 Q194.976 1539.15 189.328 1544.91 Z" fill="#000000" fill-rule="nonzero" fill-opacity="1"></path><path clip-path="url(#clip370)" d="M673.785 1532.02 L703.461 1532.02 L703.461 1535.95 L673.785 1535.95 L673.785 1532.02 Z" fill="#000000" fill-rule="nonzero" fill-opacity="1"></path><path clip-path="url(#clip370)" d="M714.364 1544.91 L722.003 1544.91 L722.003 1518.55 L713.692 1520.21 L713.692 1515.95 L721.956 1514.29 L726.632 1514.29 L726.632 1544.91 L734.271 1544.91 L734.271 1548.85 L714.364 1548.85 L714.364 1544.91 Z" fill="#000000" fill-rule="nonzero" fill-opacity="1"></path><path clip-path="url(#clip370)" d="M1232.47 1517.37 Q1228.86 1517.37 1227.03 1520.93 Q1225.22 1524.47 1225.22 1531.6 Q1225.22 1538.71 1227.03 1542.27 Q1228.86 1545.82 1232.47 1545.82 Q1236.1 1545.82 1237.91 1542.27 Q1239.74 1538.71 1239.74 1531.6 Q1239.74 1524.47 1237.91 1520.93 Q1236.1 1517.37 1232.47 1517.37 M1232.47 1513.66 Q1238.28 1513.66 1241.33 1518.27 Q1244.41 1522.85 1244.41 1531.6 Q1244.41 1540.33 1241.33 1544.94 Q1238.28 1549.52 1232.47 1549.52 Q1226.66 1549.52 1223.58 1544.94 Q1220.52 1540.33 1220.52 1531.6 Q1220.52 1522.85 1223.58 1518.27 Q1226.66 1513.66 1232.47 1513.66 Z" fill="#000000" fill-rule="nonzero" fill-opacity="1"></path><path clip-path="url(#clip370)" d="M1751.29 1544.91 L1758.93 1544.91 L1758.93 1518.55 L1750.62 1520.21 L1750.62 1515.95 L1758.88 1514.29 L1763.56 1514.29 L1763.56 1544.91 L1771.19 1544.91 L1771.19 1548.85 L1751.29 1548.85 L1751.29 1544.91 Z" fill="#000000" fill-rule="nonzero" fill-opacity="1"></path><path clip-path="url(#clip370)" d="M2284 1544.91 L2300.32 1544.91 L2300.32 1548.85 L2278.37 1548.85 L2278.37 1544.91 Q2281.03 1542.16 2285.62 1537.53 Q2290.22 1532.88 2291.4 1531.53 Q2293.65 1529.01 2294.53 1527.27 Q2295.43 1525.51 2295.43 1523.82 Q2295.43 1521.07 2293.49 1519.33 Q2291.57 1517.6 2288.46 1517.6 Q2286.26 1517.6 2283.81 1518.36 Q2281.38 1519.13 2278.6 1520.68 L2278.6 1515.95 Q2281.43 1514.82 2283.88 1514.24 Q2286.33 1513.66 2288.37 1513.66 Q2293.74 1513.66 2296.94 1516.35 Q2300.13 1519.03 2300.13 1523.52 Q2300.13 1525.65 2299.32 1527.57 Q2298.53 1529.47 2296.43 1532.07 Q2295.85 1532.74 2292.75 1535.95 Q2289.64 1539.15 2284 1544.91 Z" fill="#000000" fill-rule="nonzero" fill-opacity="1"></path><polyline clip-path="url(#clip370)" style="stroke:#000000; stroke-linecap:round; stroke-linejoin:round; stroke-width:4; stroke-opacity:1; fill:none" points="112.177,1486.45 112.177,123.472 "></polyline>
<polyline clip-path="url(#clip370)" style="stroke:#000000; stroke-linecap:round; stroke-linejoin:round; stroke-width:4; stroke-opacity:1; fill:none" points="112.177,1448 131.075,1448 "></polyline>
<polyline clip-path="url(#clip370)" style="stroke:#000000; stroke-linecap:round; stroke-linejoin:round; stroke-width:4; stroke-opacity:1; fill:none" points="112.177,1126.51 131.075,1126.51 "></polyline>
<polyline clip-path="url(#clip370)" style="stroke:#000000; stroke-linecap:round; stroke-linejoin:round; stroke-width:4; stroke-opacity:1; fill:none" points="112.177,805.026 131.075,805.026 "></polyline>
<polyline clip-path="url(#clip370)" style="stroke:#000000; stroke-linecap:round; stroke-linejoin:round; stroke-width:4; stroke-opacity:1; fill:none" points="112.177,483.536 131.075,483.536 "></polyline>
<polyline clip-path="url(#clip370)" style="stroke:#000000; stroke-linecap:round; stroke-linejoin:round; stroke-width:4; stroke-opacity:1; fill:none" points="112.177,162.047 131.075,162.047 "></polyline>
<path clip-path="url(#clip370)" d="M64.2328 1433.8 Q60.6217 1433.8 58.793 1437.37 Q56.9875 1440.91 56.9875 1448.04 Q56.9875 1455.15 58.793 1458.71 Q60.6217 1462.25 64.2328 1462.25 Q67.867 1462.25 69.6726 1458.71 Q71.5013 1455.15 71.5013 1448.04 Q71.5013 1440.91 69.6726 1437.37 Q67.867 1433.8 64.2328 1433.8 M64.2328 1430.1 Q70.0429 1430.1 73.0985 1434.71 Q76.1772 1439.29 76.1772 1448.04 Q76.1772 1456.77 73.0985 1461.37 Q70.0429 1465.96 64.2328 1465.96 Q58.4226 1465.96 55.344 1461.37 Q52.2884 1456.77 52.2884 1448.04 Q52.2884 1439.29 55.344 1434.71 Q58.4226 1430.1 64.2328 1430.1 Z" fill="#000000" fill-rule="nonzero" fill-opacity="1"></path><path clip-path="url(#clip370)" d="M56.2699 1139.86 L63.9087 1139.86 L63.9087 1113.49 L55.5986 1115.16 L55.5986 1110.9 L63.8624 1109.23 L68.5383 1109.23 L68.5383 1139.86 L76.1772 1139.86 L76.1772 1143.79 L56.2699 1143.79 L56.2699 1139.86 Z" fill="#000000" fill-rule="nonzero" fill-opacity="1"></path><path clip-path="url(#clip370)" d="M59.8578 818.37 L76.1772 818.37 L76.1772 822.306 L54.2328 822.306 L54.2328 818.37 Q56.8949 815.616 61.4782 810.986 Q66.0846 806.333 67.2652 804.991 Q69.5105 802.468 70.3902 800.732 Q71.2929 798.972 71.2929 797.283 Q71.2929 794.528 69.3485 792.792 Q67.4272 791.056 64.3254 791.056 Q62.1263 791.056 59.6726 791.82 Q57.2421 792.584 54.4643 794.134 L54.4643 789.412 Q57.2884 788.278 59.7421 787.699 Q62.1958 787.121 64.2328 787.121 Q69.6031 787.121 72.7976 789.806 Q75.992 792.491 75.992 796.982 Q75.992 799.111 75.1818 801.033 Q74.3948 802.931 72.2883 805.523 Q71.7096 806.195 68.6078 809.412 Q65.5059 812.607 59.8578 818.37 Z" fill="#000000" fill-rule="nonzero" fill-opacity="1"></path><path clip-path="url(#clip370)" d="M69.0476 482.182 Q72.404 482.9 74.279 485.168 Q76.1772 487.437 76.1772 490.77 Q76.1772 495.886 72.6587 498.687 Q69.1402 501.488 62.6587 501.488 Q60.4828 501.488 58.168 501.048 Q55.8764 500.631 53.4227 499.775 L53.4227 495.261 Q55.3671 496.395 57.6819 496.974 Q59.9967 497.552 62.5198 497.552 Q66.918 497.552 69.2096 495.816 Q71.5244 494.08 71.5244 490.77 Q71.5244 487.714 69.3717 486.002 Q67.242 484.265 63.4226 484.265 L59.3949 484.265 L59.3949 480.423 L63.6078 480.423 Q67.0569 480.423 68.8855 479.057 Q70.7142 477.668 70.7142 475.076 Q70.7142 472.414 68.8161 471.002 Q66.9411 469.566 63.4226 469.566 Q61.5013 469.566 59.3023 469.983 Q57.1032 470.4 54.4643 471.279 L54.4643 467.113 Q57.1264 466.372 59.4412 466.002 Q61.7791 465.631 63.8393 465.631 Q69.1633 465.631 72.2652 468.062 Q75.367 470.469 75.367 474.59 Q75.367 477.46 73.7235 479.451 Q72.08 481.418 69.0476 482.182 Z" fill="#000000" fill-rule="nonzero" fill-opacity="1"></path><path clip-path="url(#clip370)" d="M66.5939 148.841 L54.7884 167.29 L66.5939 167.29 L66.5939 148.841 M65.367 144.767 L71.2466 144.767 L71.2466 167.29 L76.1772 167.29 L76.1772 171.179 L71.2466 171.179 L71.2466 179.327 L66.5939 179.327 L66.5939 171.179 L50.9921 171.179 L50.9921 166.665 L65.367 144.767 Z" fill="#000000" fill-rule="nonzero" fill-opacity="1"></path><path clip-path="url(#clip370)" d="M1018.64 18.8205 L1018.64 41.5461 L1028.93 41.5461 Q1034.64 41.5461 1037.76 38.5889 Q1040.88 35.6318 1040.88 30.163 Q1040.88 24.7348 1037.76 21.7777 Q1034.64 18.8205 1028.93 18.8205 L1018.64 18.8205 M1010.46 12.096 L1028.93 12.096 Q1039.1 12.096 1044.28 16.714 Q1049.51 21.2916 1049.51 30.163 Q1049.51 39.1155 1044.28 43.6931 Q1039.1 48.2706 1028.93 48.2706 L1018.64 48.2706 L1018.64 72.576 L1010.46 72.576 L1010.46 12.096 Z" fill="#000000" fill-rule="nonzero" fill-opacity="1"></path><path clip-path="url(#clip370)" d="M1060.16 9.54393 L1067.61 9.54393 L1067.61 72.576 L1060.16 72.576 L1060.16 9.54393 Z" fill="#000000" fill-rule="nonzero" fill-opacity="1"></path><path clip-path="url(#clip370)" d="M1100.79 32.4315 Q1094.8 32.4315 1091.31 37.1306 Q1087.83 41.7891 1087.83 49.9314 Q1087.83 58.0738 1091.27 62.7728 Q1094.76 67.4314 1100.79 67.4314 Q1106.75 67.4314 1110.23 62.7323 Q1113.71 58.0333 1113.71 49.9314 Q1113.71 41.8701 1110.23 37.1711 Q1106.75 32.4315 1100.79 32.4315 M1100.79 26.1121 Q1110.51 26.1121 1116.06 32.4315 Q1121.61 38.7509 1121.61 49.9314 Q1121.61 61.0714 1116.06 67.4314 Q1110.51 73.7508 1100.79 73.7508 Q1091.03 73.7508 1085.48 67.4314 Q1079.97 61.0714 1079.97 49.9314 Q1079.97 38.7509 1085.48 32.4315 Q1091.03 26.1121 1100.79 26.1121 Z" fill="#000000" fill-rule="nonzero" fill-opacity="1"></path><path clip-path="url(#clip370)" d="M1141.34 14.324 L1141.34 27.2059 L1156.69 27.2059 L1156.69 32.9987 L1141.34 32.9987 L1141.34 57.6282 Q1141.34 63.1779 1142.84 64.7578 Q1144.38 66.3376 1149.04 66.3376 L1156.69 66.3376 L1156.69 72.576 L1149.04 72.576 Q1140.41 72.576 1137.13 69.3758 Q1133.85 66.1351 1133.85 57.6282 L1133.85 32.9987 L1128.38 32.9987 L1128.38 27.2059 L1133.85 27.2059 L1133.85 14.324 L1141.34 14.324 Z" fill="#000000" fill-rule="nonzero" fill-opacity="1"></path><path clip-path="url(#clip370)" d="M1210.45 32.4315 Q1204.45 32.4315 1200.97 37.1306 Q1197.49 41.7891 1197.49 49.9314 Q1197.49 58.0738 1200.93 62.7728 Q1204.41 67.4314 1210.45 67.4314 Q1216.4 67.4314 1219.89 62.7323 Q1223.37 58.0333 1223.37 49.9314 Q1223.37 41.8701 1219.89 37.1711 Q1216.4 32.4315 1210.45 32.4315 M1210.45 26.1121 Q1220.17 26.1121 1225.72 32.4315 Q1231.27 38.7509 1231.27 49.9314 Q1231.27 61.0714 1225.72 67.4314 Q1220.17 73.7508 1210.45 73.7508 Q1200.69 73.7508 1195.14 67.4314 Q1189.63 61.0714 1189.63 49.9314 Q1189.63 38.7509 1195.14 32.4315 Q1200.69 26.1121 1210.45 26.1121 Z" fill="#000000" fill-rule="nonzero" fill-opacity="1"></path><path clip-path="url(#clip370)" d="M1266.6 9.54393 L1266.6 15.7418 L1259.47 15.7418 Q1255.46 15.7418 1253.88 17.3622 Q1252.34 18.9825 1252.34 23.1955 L1252.34 27.2059 L1264.61 27.2059 L1264.61 32.9987 L1252.34 32.9987 L1252.34 72.576 L1244.84 72.576 L1244.84 32.9987 L1237.71 32.9987 L1237.71 27.2059 L1244.84 27.2059 L1244.84 24.0462 Q1244.84 16.471 1248.37 13.0277 Q1251.89 9.54393 1259.55 9.54393 L1266.6 9.54393 Z" fill="#000000" fill-rule="nonzero" fill-opacity="1"></path><path clip-path="url(#clip370)" d="M1336.92 27.2059 L1320.51 49.2833 L1337.77 72.576 L1328.98 72.576 L1315.77 54.752 L1302.57 72.576 L1293.78 72.576 L1311.4 48.8377 L1295.28 27.2059 L1304.07 27.2059 L1316.1 43.369 L1328.13 27.2059 L1336.92 27.2059 Z" fill="#000000" fill-rule="nonzero" fill-opacity="1"></path><path clip-path="url(#clip370)" d="M1379.21 12.096 L1401.21 34.6595 L1393.06 34.6595 L1375.24 18.6585 L1357.42 34.6595 L1349.27 34.6595 L1371.27 12.096 L1379.21 12.096 Z" fill="#000000" fill-rule="nonzero" fill-opacity="1"></path><path clip-path="url(#clip370)" d="M1425.92 65.6895 L1454.48 65.6895 L1454.48 72.576 L1416.07 72.576 L1416.07 65.6895 Q1420.73 60.8689 1428.75 52.7671 Q1436.81 44.6248 1438.88 42.2752 Q1442.81 37.8598 1444.35 34.8216 Q1445.93 31.7429 1445.93 28.7857 Q1445.93 23.9651 1442.53 20.927 Q1439.16 17.8888 1433.74 17.8888 Q1429.89 17.8888 1425.59 19.2256 Q1421.34 20.5624 1416.48 23.2765 L1416.48 15.0127 Q1421.42 13.0277 1425.71 12.015 Q1430.01 11.0023 1433.57 11.0023 Q1442.97 11.0023 1448.56 15.7013 Q1454.15 20.4004 1454.15 28.2591 Q1454.15 31.9859 1452.73 35.3482 Q1451.36 38.6699 1447.67 43.2069 Q1446.66 44.3817 1441.23 50.0125 Q1435.8 55.6027 1425.92 65.6895 Z" fill="#000000" fill-rule="nonzero" fill-opacity="1"></path><polyline clip-path="url(#clip372)" style="stroke:#009af9; stroke-linecap:round; stroke-linejoin:round; stroke-width:4; stroke-opacity:1; fill:none" points="175.59,162.047 196.941,213.48 218.292,263.863 239.643,313.197 260.994,361.481 282.345,408.716 303.696,454.9 325.047,500.036 346.398,544.121 367.749,587.157 389.1,629.143 410.451,670.079 431.802,709.966 453.153,748.804 474.504,786.591 495.855,823.329 517.207,859.017 538.558,893.656 559.909,927.245 581.26,959.784 602.611,991.274 623.962,1021.71 645.313,1051.1 666.664,1079.44 688.015,1106.74 709.366,1132.98 730.717,1158.17 752.068,1182.31 773.419,1205.4 794.77,1227.45 816.121,1248.44 837.472,1268.38 858.823,1287.28 880.174,1305.12 901.525,1321.91 922.876,1337.66 944.227,1352.35 965.578,1366 986.93,1378.6 1008.28,1390.14 1029.63,1400.64 1050.98,1410.09 1072.33,1418.48 1093.68,1425.83 1115.04,1432.13 1136.39,1437.38 1157.74,1441.58 1179.09,1444.72 1200.44,1446.82 1221.79,1447.87 1243.14,1447.87 1264.49,1446.82 1285.84,1444.72 1307.2,1441.58 1328.55,1437.38 1349.9,1432.13 1371.25,1425.83 1392.6,1418.48 1413.95,1410.09 1435.3,1400.64 1456.65,1390.14 1478,1378.6 1499.35,1366 1520.71,1352.35 1542.06,1337.66 1563.41,1321.91 1584.76,1305.12 1606.11,1287.28 1627.46,1268.38 1648.81,1248.44 1670.16,1227.45 1691.51,1205.4 1712.87,1182.31 1734.22,1158.17 1755.57,1132.98 1776.92,1106.74 1798.27,1079.44 1819.62,1051.1 1840.97,1021.71 1862.32,991.274 1883.67,959.784 1905.02,927.245 1926.38,893.656 1947.73,859.017 1969.08,823.329 1990.43,786.591 2011.78,748.804 2033.13,709.966 2054.48,670.079 2075.83,629.143 2097.18,587.157 2118.53,544.121 2139.89,500.036 2161.24,454.9 2182.59,408.716 2203.94,361.481 2225.29,313.197 2246.64,263.863 2267.99,213.48 2289.34,162.047 "></polyline>
<path clip-path="url(#clip370)" d="M2001.58 1441.02 L2278.07 1441.02 L2278.07 1337.34 L2001.58 1337.34  Z" fill="#ffffff" fill-rule="evenodd" fill-opacity="1"></path>
<polyline clip-path="url(#clip370)" style="stroke:#000000; stroke-linecap:round; stroke-linejoin:round; stroke-width:4; stroke-opacity:1; fill:none" points="2001.58,1441.02 2278.07,1441.02 2278.07,1337.34 2001.58,1337.34 2001.58,1441.02 "></polyline>
<polyline clip-path="url(#clip370)" style="stroke:#009af9; stroke-linecap:round; stroke-linejoin:round; stroke-width:4; stroke-opacity:1; fill:none" points="2026.48,1389.18 2175.85,1389.18 "></polyline>
<path clip-path="url(#clip370)" d="M2214.59 1408.86 Q2212.78 1413.49 2211.07 1414.9 Q2209.36 1416.32 2206.49 1416.32 L2203.08 1416.32 L2203.08 1412.75 L2205.58 1412.75 Q2207.34 1412.75 2208.31 1411.92 Q2209.29 1411.08 2210.47 1407.98 L2211.23 1406.04 L2200.74 1380.53 L2205.26 1380.53 L2213.36 1400.81 L2221.46 1380.53 L2225.98 1380.53 L2214.59 1408.86 Z" fill="#000000" fill-rule="nonzero" fill-opacity="1"></path><path clip-path="url(#clip370)" d="M2233.27 1402.52 L2240.91 1402.52 L2240.91 1376.15 L2232.6 1377.82 L2232.6 1373.56 L2240.86 1371.9 L2245.54 1371.9 L2245.54 1402.52 L2253.17 1402.52 L2253.17 1406.46 L2233.27 1406.46 L2233.27 1402.52 Z" fill="#000000" fill-rule="nonzero" fill-opacity="1"></path></svg>