<?xml version="1.0" encoding="UTF-8"?>
<svg xmlns="http://www.w3.org/2000/svg" xmlns:xlink="http://www.w3.org/1999/xlink" width="600" height="600" viewBox="0 0 600 600">
<rect x="-60" y="-60" width="720" height="720" fill="rgb(100%, 100%, 100%)" fill-opacity="1"/>
<path fill-rule="nonzero" fill="rgb(79.6%, 23.5%, 20%)" fill-opacity="1" d="M 288.398438 350 C 288.398438 391.421875 254.820313 425 213.398438 425 C 171.976563 425 138.398438 391.421875 138.398438 350 C 138.398438 308.578125 171.976563 275 213.398438 275 C 254.820313 275 288.398438 308.578125 288.398438 350 Z M 288.398438 350 "/>
<path fill-rule="nonzero" fill="rgb(22%, 59.6%, 14.9%)" fill-opacity="1" d="M 375 200 C 375 241.421875 341.421875 275 300 275 C 258.578125 275 225 241.421875 225 200 C 225 158.578125 258.578125 125 300 125 C 341.421875 125 375 158.578125 375 200 Z M 375 200 "/>
<path fill-rule="nonzero" fill="rgb(58.4%, 34.5%, 69.8%)" fill-opacity="1" d="M 461.601563 350 C 461.601563 391.421875 428.023438 425 386.601563 425 C 345.179688 425 311.601563 391.421875 311.601563 350 C 311.601563 308.578125 345.179688 275 386.601563 275 C 428.023438 275 461.601563 308.578125 461.601563 350 Z M 461.601563 350 "/>
</svg>
